<svg xmlns="http://www.w3.org/2000/svg" height="500" width="848"><g><g transform="translate(0,480)" style="stroke-width: 1px; font-size: 10px; font-family: Arial,Helvetica;" class="x axis"><g transform="translate(52.77024868811316,0)" style="opacity: 1;" class="tick"><line style="shape-rendering: crispedges; fill: none; stroke: rgb(204, 204, 204);" x2="0" y2="-480"></line><text style="text-anchor: middle;" dy=".71em" x="0" y="3">April</text></g><g transform="translate(105.58886607346565,0)" style="opacity: 1;" class="tick"><line style="shape-rendering: crispedges; fill: none; stroke: rgb(204, 204, 204);" x2="0" y2="-480"></line><text style="text-anchor: middle;" dy=".71em" x="0" y="3">July</text></g><g transform="translate(158.98790782569017,0)" style="opacity: 1;" class="tick"><line style="shape-rendering: crispedges; fill: none; stroke: rgb(204, 204, 204);" x2="0" y2="-480"></line><text style="text-anchor: middle;" dy=".71em" x="0" y="3">October</text></g><g transform="translate(212.41113392653432,0)" style="opacity: 1;" class="tick"><line style="shape-rendering: crispedges; fill: none; stroke: rgb(204, 204, 204);" x2="0" y2="-480"></line><text style="text-anchor: middle;" dy=".71em" x="0" y="3">2013</text></g><g transform="translate(264.62514259639516,0)" style="opacity: 1;" class="tick"><line style="shape-rendering: crispedges; fill: none; stroke: rgb(204, 204, 204);" x2="0" y2="-480"></line><text style="text-anchor: middle;" dy=".71em" x="0" y="3">April</text></g><g transform="translate(317.44375998174763,0)" style="opacity: 1;" class="tick"><line style="shape-rendering: crispedges; fill: none; stroke: rgb(204, 204, 204);" x2="0" y2="-480"></line><text style="text-anchor: middle;" dy=".71em" x="0" y="3">July</text></g><g transform="translate(370.8428017339721,0)" style="opacity: 1;" class="tick"><line style="shape-rendering: crispedges; fill: none; stroke: rgb(204, 204, 204);" x2="0" y2="-480"></line><text style="text-anchor: middle;" dy=".71em" x="0" y="3">October</text></g><g transform="translate(424.26602783481627,0)" style="opacity: 1;" class="tick"><line style="shape-rendering: crispedges; fill: none; stroke: rgb(204, 204, 204);" x2="0" y2="-480"></line><text style="text-anchor: middle;" dy=".71em" x="0" y="3">2014</text></g><g transform="translate(476.4800365046772,0)" style="opacity: 1;" class="tick"><line style="shape-rendering: crispedges; fill: none; stroke: rgb(204, 204, 204);" x2="0" y2="-480"></line><text style="text-anchor: middle;" dy=".71em" x="0" y="3">April</text></g><g transform="translate(529.2986538900295,0)" style="opacity: 1;" class="tick"><line style="shape-rendering: crispedges; fill: none; stroke: rgb(204, 204, 204);" x2="0" y2="-480"></line><text style="text-anchor: middle;" dy=".71em" x="0" y="3">July</text></g><g transform="translate(582.6976956422541,0)" style="opacity: 1;" class="tick"><line style="shape-rendering: crispedges; fill: none; stroke: rgb(204, 204, 204);" x2="0" y2="-480"></line><text style="text-anchor: middle;" dy=".71em" x="0" y="3">October</text></g><g transform="translate(636.1209217430983,0)" style="opacity: 1;" class="tick"><line style="shape-rendering: crispedges; fill: none; stroke: rgb(204, 204, 204);" x2="0" y2="-480"></line><text style="text-anchor: middle;" dy=".71em" x="0" y="3">2015</text></g><g transform="translate(688.3349304129591,0)" style="opacity: 1;" class="tick"><line style="shape-rendering: crispedges; fill: none; stroke: rgb(204, 204, 204);" x2="0" y2="-480"></line><text style="text-anchor: middle;" dy=".71em" x="0" y="3">April</text></g><g transform="translate(741.1535477983116,0)" style="opacity: 1;" class="tick"><line style="shape-rendering: crispedges; fill: none; stroke: rgb(204, 204, 204);" x2="0" y2="-480"></line><text style="text-anchor: middle;" dy=".71em" x="0" y="3">July</text></g><g transform="translate(794.5525895505361,0)" style="opacity: 1;" class="tick"><line style="shape-rendering: crispedges; fill: none; stroke: rgb(204, 204, 204);" x2="0" y2="-480"></line><text style="text-anchor: middle;" dy=".71em" x="0" y="3">October</text></g><g transform="translate(847.9758156513802,0)" style="opacity: 1;" class="tick"><line style="shape-rendering: crispedges; fill: none; stroke: rgb(204, 204, 204);" x2="0" y2="-480"></line><text style="text-anchor: middle;" dy=".71em" x="0" y="3">2016</text></g><path style="shape-rendering: crispedges; fill: none; stroke: rgb(204, 204, 204);" d="M0,-480V0H848V-480" class="domain"></path></g><path style="fill: rgb(191, 105, 105);" title="activités" d="M0,480L212.435318275154,480L424.290212183436,480L636.1451060917179,470.8891108891109L847.9999999999999,480L847.9999999999999,480L636.1451060917179,480L424.290212183436,480L212.435318275154,480L0,480Z" class="layer"></path><path style="fill: rgb(191, 117, 105);" title="administration" d="M0,480L212.435318275154,480L424.290212183436,469.5785440613027L636.1451060917179,470.8891108891109L847.9999999999999,480L847.9999999999999,480L636.1451060917179,470.8891108891109L424.290212183436,480L212.435318275154,480L0,480Z" class="layer"></path><path style="fill: rgb(191, 129, 105);" title="agence" d="M0,480L212.435318275154,480L424.290212183436,469.5785440613027L636.1451060917179,470.8891108891109L847.9999999999999,470.4174228675136L847.9999999999999,480L636.1451060917179,470.8891108891109L424.290212183436,469.5785440613027L212.435318275154,480L0,480Z" class="layer"></path><path style="fill: rgb(191, 141, 105);" title="aide" d="M0,480L212.435318275154,480L424.290212183436,469.5785440613027L636.1451060917179,465.13486513486515L847.9999999999999,470.4174228675136L847.9999999999999,470.4174228675136L636.1451060917179,470.8891108891109L424.290212183436,469.5785440613027L212.435318275154,480L0,480Z" class="layer"></path><path style="fill: rgb(191, 153, 105);" title="urbanisme" d="M0,433.51089588377727L212.435318275154,395.8020989505248L424.290212183436,391.72413793103453L636.1451060917179,398.961038961039L847.9999999999999,402.46823956442836L847.9999999999999,470.4174228675136L636.1451060917179,465.13486513486515L424.290212183436,469.5785440613027L212.435318275154,480L0,480Z" class="layer"></path><path style="fill: rgb(191, 165, 105);" title="animation" d="M0,433.51089588377727L212.435318275154,395.8020989505248L424.290212183436,391.72413793103453L636.1451060917179,393.6863136863137L847.9999999999999,402.46823956442836L847.9999999999999,402.46823956442836L636.1451060917179,398.961038961039L424.290212183436,391.72413793103453L212.435318275154,395.8020989505248L0,433.51089588377727Z" class="layer"></path><path style="fill: rgb(191, 177, 105);" title="assainissement" d="M0,376.5617433414044L212.435318275154,351.90404797601207L424.290212183436,374.55938697318015L636.1451060917179,376.9030969030969L847.9999999999999,380.68965517241384L847.9999999999999,402.46823956442836L636.1451060917179,393.6863136863137L424.290212183436,391.72413793103453L212.435318275154,395.8020989505248L0,433.51089588377727Z" class="layer"></path><path style="fill: rgb(191, 189, 105);" title="association" d="M0,376.5617433414044L212.435318275154,331.7541229385308L424.290212183436,348.8122605363985L636.1451060917179,364.4355644355645L847.9999999999999,358.9110707803993L847.9999999999999,380.68965517241384L636.1451060917179,376.9030969030969L424.290212183436,374.55938697318015L212.435318275154,351.90404797601207L0,376.5617433414044Z" class="layer"></path><path style="fill: rgb(181, 191, 105);" title="budget" d="M0,274.28571428571433L212.435318275154,271.3043478260871L424.290212183436,274.0229885057472L636.1451060917179,276.2037962037963L847.9999999999999,244.7912885662433L847.9999999999999,358.9110707803993L636.1451060917179,364.4355644355645L424.290212183436,348.8122605363985L212.435318275154,331.7541229385308L0,376.5617433414044Z" class="layer"></path><path style="fill: rgb(169, 191, 105);" title="centre" d="M0,256.8523002421308L212.435318275154,258.35082458770626L424.290212183436,264.2145593869733L636.1451060917179,267.0929070929072L847.9999999999999,244.7912885662433L847.9999999999999,244.7912885662433L636.1451060917179,276.2037962037963L424.290212183436,274.0229885057472L212.435318275154,271.3043478260871L0,274.28571428571433Z" class="layer"></path><path style="fill: rgb(157, 191, 105);" title="communication" d="M0,256.8523002421308L212.435318275154,258.35082458770626L424.290212183436,264.2145593869733L636.1451060917179,260.85914085914095L847.9999999999999,244.7912885662433L847.9999999999999,244.7912885662433L636.1451060917179,267.0929070929072L424.290212183436,264.2145593869733L212.435318275154,258.35082458770626L0,256.8523002421308Z" class="layer"></path><path style="fill: rgb(145, 191, 105);" title="congrès" d="M0,256.8523002421308L212.435318275154,258.35082458770626L424.290212183436,254.40613026819935L636.1451060917179,251.26873126873136L847.9999999999999,216.91470054446472L847.9999999999999,244.7912885662433L636.1451060917179,260.85914085914095L424.290212183436,264.2145593869733L212.435318275154,258.35082458770626L0,256.8523002421308Z" class="layer"></path><path style="fill: rgb(133, 191, 105);" title="courrier" d="M0,256.8523002421308L212.435318275154,238.9205397301351L424.290212183436,236.62835249042158L636.1451060917179,242.63736263736274L847.9999999999999,196.00725952813082L847.9999999999999,216.91470054446472L636.1451060917179,251.26873126873136L424.290212183436,254.40613026819935L212.435318275154,258.35082458770626L0,256.8523002421308Z" class="layer"></path><path style="fill: rgb(121, 191, 105);" title="école" d="M0,224.3099273607749L212.435318275154,207.97601199400322L424.290212183436,142.8352490421458L636.1451060917179,140.9790209790212L847.9999999999999,156.80580762250474L847.9999999999999,196.00725952813082L636.1451060917179,242.63736263736274L424.290212183436,236.62835249042158L212.435318275154,238.9205397301351L0,256.8523002421308Z" class="layer"></path><path style="fill: rgb(109, 191, 105);" title="entreprises" d="M0,211.52542372881362L212.435318275154,159.0404797601202L424.290212183436,142.8352490421458L636.1451060917179,135.70429570429593L847.9999999999999,156.80580762250474L847.9999999999999,156.80580762250474L636.1451060917179,140.9790209790212L424.290212183436,142.8352490421458L212.435318275154,207.97601199400322L0,224.3099273607749Z" class="layer"></path><path style="fill: rgb(105, 191, 113);" title="entretien" d="M0,211.52542372881362L212.435318275154,159.0404797601202L424.290212183436,142.8352490421458L636.1451060917179,135.70429570429593L847.9999999999999,144.60980036297656L847.9999999999999,156.80580762250474L636.1451060917179,135.70429570429593L424.290212183436,142.8352490421458L212.435318275154,159.0404797601202L0,211.52542372881362Z" class="layer"></path><path style="fill: rgb(105, 191, 125);" title="environnement" d="M0,211.52542372881362L212.435318275154,159.0404797601202L424.290212183436,142.8352490421458L636.1451060917179,135.70429570429593L847.9999999999999,135.02722323049016L847.9999999999999,144.60980036297656L636.1451060917179,135.70429570429593L424.290212183436,142.8352490421458L212.435318275154,159.0404797601202L0,211.52542372881362Z" class="layer"></path><path style="fill: rgb(105, 191, 137);" title="exploitation" d="M0,211.52542372881362L212.435318275154,159.0404797601202L424.290212183436,142.8352490421458L636.1451060917179,135.70429570429593L847.9999999999999,120.2177858439203L847.9999999999999,135.02722323049016L636.1451060917179,135.70429570429593L424.290212183436,142.8352490421458L212.435318275154,159.0404797601202L0,211.52542372881362Z" class="layer"></path><path style="fill: rgb(105, 191, 149);" title="formation" d="M0,211.52542372881362L212.435318275154,159.0404797601202L424.290212183436,142.8352490421458L636.1451060917179,135.70429570429593L847.9999999999999,108.02177858439217L847.9999999999999,120.2177858439203L636.1451060917179,135.70429570429593L424.290212183436,142.8352490421458L212.435318275154,159.0404797601202L0,211.52542372881362Z" class="layer"></path><path style="fill: rgb(105, 191, 161);" title="gestion" d="M0,187.1186440677967L212.435318275154,148.96551724137953L424.290212183436,131.8007662835251L636.1451060917179,130.42957042957067L847.9999999999999,108.02177858439217L847.9999999999999,108.02177858439217L636.1451060917179,135.70429570429593L424.290212183436,142.8352490421458L212.435318275154,159.0404797601202L0,211.52542372881362Z" class="layer"></path><path style="fill: rgb(105, 191, 173);" title="hébergement" d="M0,187.1186440677967L212.435318275154,148.96551724137953L424.290212183436,131.8007662835251L636.1451060917179,123.71628371628395L847.9999999999999,108.02177858439217L847.9999999999999,108.02177858439217L636.1451060917179,130.42957042957067L424.290212183436,131.8007662835251L212.435318275154,148.96551724137953L0,187.1186440677967Z" class="layer"></path><path style="fill: rgb(105, 191, 185);" title="intercommunalité" d="M0,170.84745762711879L212.435318275154,148.96551724137953L424.290212183436,131.8007662835251L636.1451060917179,123.71628371628395L847.9999999999999,108.02177858439217L847.9999999999999,108.02177858439217L636.1451060917179,123.71628371628395L424.290212183436,131.8007662835251L212.435318275154,148.96551724137953L0,187.1186440677967Z" class="layer"></path><path style="fill: rgb(105, 185, 191);" title="journée" d="M0,170.84745762711879L212.435318275154,148.96551724137953L424.290212183436,131.8007662835251L636.1451060917179,123.71628371628395L847.9999999999999,95.82577132486404L847.9999999999999,108.02177858439217L636.1451060917179,123.71628371628395L424.290212183436,131.8007662835251L212.435318275154,148.96551724137953L0,170.84745762711879Z" class="layer"></path><path style="fill: rgb(105, 173, 191);" title="loisirs" d="M0,158.0629539951575L212.435318275154,148.96551724137953L424.290212183436,131.8007662835251L636.1451060917179,123.71628371628395L847.9999999999999,95.82577132486404L847.9999999999999,95.82577132486404L636.1451060917179,123.71628371628395L424.290212183436,131.8007662835251L212.435318275154,148.96551724137953L0,170.84745762711879Z" class="layer"></path><path style="fill: rgb(105, 161, 191);" title="marché" d="M0,145.2784503631962L212.435318275154,135.29235382308866L424.290212183436,121.99233716475118L636.1451060917179,117.96203796203815L847.9999999999999,95.82577132486404L847.9999999999999,95.82577132486404L636.1451060917179,123.71628371628395L424.290212183436,131.8007662835251L212.435318275154,148.96551724137953L0,158.0629539951575Z" class="layer"></path><path style="fill: rgb(105, 149, 191);" title="plan" d="M0,130.16949152542384L212.435318275154,123.05847076461788L424.290212183436,114.63601532567066L636.1451060917179,109.81018981019002L847.9999999999999,86.24319419237764L847.9999999999999,95.82577132486404L636.1451060917179,117.96203796203815L424.290212183436,121.99233716475118L212.435318275154,135.29235382308866L0,145.2784503631962Z" class="layer"></path><path style="fill: rgb(105, 137, 191);" title="risques" d="M0,130.16949152542384L212.435318275154,123.05847076461788L424.290212183436,107.89272030651364L636.1451060917179,109.81018981019002L847.9999999999999,86.24319419237764L847.9999999999999,86.24319419237764L636.1451060917179,109.81018981019002L424.290212183436,114.63601532567066L212.435318275154,123.05847076461788L0,130.16949152542384Z" class="layer"></path><path style="fill: rgb(105, 125, 191);" title="réseau" d="M0,81.3559322033899L212.435318275154,97.15142428785629L424.290212183436,101.14942528735651L636.1451060917179,100.21978021978043L847.9999999999999,76.66061705989125L847.9999999999999,86.24319419237764L636.1451060917179,109.81018981019002L424.290212183436,107.89272030651364L212.435318275154,123.05847076461788L0,130.16949152542384Z" class="layer"></path><path style="fill: rgb(105, 113, 191);" title="salle" d="M0,81.3559322033899L212.435318275154,87.79610194902568L424.290212183436,88.27586206896575L636.1451060917179,85.35464535464558L847.9999999999999,62.72232304900194L847.9999999999999,76.66061705989125L636.1451060917179,100.21978021978043L424.290212183436,101.14942528735651L212.435318275154,97.15142428785629L0,81.3559322033899Z" class="layer"></path><path style="fill: rgb(109, 105, 191);" title="SAUR" d="M0,81.3559322033899L212.435318275154,87.79610194902568L424.290212183436,88.27586206896575L636.1451060917179,85.35464535464558L847.9999999999999,52.26860254083499L847.9999999999999,62.72232304900194L636.1451060917179,85.35464535464558L424.290212183436,88.27586206896575L212.435318275154,87.79610194902568L0,81.3559322033899Z" class="layer"></path><path style="fill: rgb(121, 105, 191);" title="service" d="M0,54.62469733656184L212.435318275154,76.28185907046498L424.290212183436,53.3333333333336L636.1451060917179,64.2557442557445L847.9999999999999,13.067150635208861L847.9999999999999,52.26860254083499L636.1451060917179,85.35464535464558L424.290212183436,88.27586206896575L212.435318275154,87.79610194902568L0,81.3559322033899Z" class="layer"></path><path style="fill: rgb(133, 105, 191);" title="site" d="M0,54.62469733656184L212.435318275154,76.28185907046498L424.290212183436,53.3333333333336L636.1451060917179,50.82917082917112L847.9999999999999,13.067150635208861L847.9999999999999,13.067150635208861L636.1451060917179,64.2557442557445L424.290212183436,53.3333333333336L212.435318275154,76.28185907046498L0,54.62469733656184Z" class="layer"></path><path style="fill: rgb(145, 105, 191);" title="sociale" d="M0,54.62469733656184L212.435318275154,76.28185907046498L424.290212183436,53.3333333333336L636.1451060917179,45.074925074925375L847.9999999999999,13.067150635208861L847.9999999999999,13.067150635208861L636.1451060917179,50.82917082917112L424.290212183436,53.3333333333336L212.435318275154,76.28185907046498L0,54.62469733656184Z" class="layer"></path><path style="fill: rgb(157, 105, 191);" title="subvention" d="M0,40.677966101695006L212.435318275154,64.76761619190432L424.290212183436,44.75095785440635L636.1451060917179,38.84115884115914L847.9999999999999,13.067150635208861L847.9999999999999,13.067150635208861L636.1451060917179,45.074925074925375L424.290212183436,53.3333333333336L212.435318275154,76.28185907046498L0,54.62469733656184Z" class="layer"></path><path style="fill: rgb(169, 105, 191);" title="syndicat" d="M0,40.677966101695006L212.435318275154,56.851574212893865L424.290212183436,34.942528735632436L636.1451060917179,38.84115884115914L847.9999999999999,13.067150635208861L847.9999999999999,13.067150635208861L636.1451060917179,38.84115884115914L424.290212183436,44.75095785440635L212.435318275154,64.76761619190432L0,40.677966101695006Z" class="layer"></path><path style="fill: rgb(181, 105, 191);" title="sécurité" d="M0,27.89346246973372L212.435318275154,56.851574212893865L424.290212183436,27.58620689655197L636.1451060917179,33.566433566433886L847.9999999999999,13.067150635208861L847.9999999999999,13.067150635208861L636.1451060917179,38.84115884115914L424.290212183436,34.942528735632436L212.435318275154,56.851574212893865L0,40.677966101695006Z" class="layer"></path><path style="fill: rgb(191, 105, 189);" title="territoire" d="M0,27.89346246973372L212.435318275154,56.851574212893865L424.290212183436,27.58620689655197L636.1451060917179,28.29170829170863L847.9999999999999,13.067150635208861L847.9999999999999,13.067150635208861L636.1451060917179,33.566433566433886L424.290212183436,27.58620689655197L212.435318275154,56.851574212893865L0,27.89346246973372Z" class="layer"></path><path style="fill: rgb(191, 105, 177);" title="transfert" d="M0,27.89346246973372L212.435318275154,43.89805097451301L424.290212183436,27.58620689655197L636.1451060917179,28.29170829170863L847.9999999999999,13.067150635208861L847.9999999999999,13.067150635208861L636.1451060917179,28.29170829170863L424.290212183436,27.58620689655197L212.435318275154,56.851574212893865L0,27.89346246973372Z" class="layer"></path><path style="fill: rgb(191, 105, 165);" title="église" d="M0,27.89346246973372L212.435318275154,33.82308845577239L424.290212183436,20.842911877394897L636.1451060917179,15.344655344655678L847.9999999999999,13.067150635208861L847.9999999999999,13.067150635208861L636.1451060917179,28.29170829170863L424.290212183436,27.58620689655197L212.435318275154,43.89805097451301L0,27.89346246973372Z" class="layer"></path><path style="fill: rgb(191, 105, 153);" title="voie" d="M0,15.108958837772434L212.435318275154,22.308845577211684L424.290212183436,14.099616858237823L636.1451060917179,3.410605131648481e-13L847.9999999999999,2.2737367544323206e-13L847.9999999999999,13.067150635208861L636.1451060917179,15.344655344655678L424.290212183436,20.842911877394897L212.435318275154,33.82308845577239L0,27.89346246973372Z" class="layer"></path><path style="fill: rgb(191, 105, 141);" title="voeux" d="M0,0L212.435318275154,10.794602698650976L424.290212183436,14.099616858237823L636.1451060917179,3.410605131648481e-13L847.9999999999999,2.2737367544323206e-13L847.9999999999999,2.2737367544323206e-13L636.1451060917179,3.410605131648481e-13L424.290212183436,14.099616858237823L212.435318275154,22.308845577211684L0,15.108958837772434Z" class="layer"></path><path style="fill: rgb(191, 105, 129);" title="zone" d="M0,0L212.435318275154,3.410605131648481e-13L424.290212183436,14.099616858237823L636.1451060917179,3.410605131648481e-13L847.9999999999999,2.2737367544323206e-13L847.9999999999999,2.2737367544323206e-13L636.1451060917179,3.410605131648481e-13L424.290212183436,14.099616858237823L212.435318275154,10.794602698650976L0,0Z" class="layer"></path><path style="fill: rgb(191, 105, 117);" title="élection" d="M0,0L212.435318275154,3.410605131648481e-13L424.290212183436,2.8421709430404007e-13L636.1451060917179,3.410605131648481e-13L847.9999999999999,2.2737367544323206e-13L847.9999999999999,2.2737367544323206e-13L636.1451060917179,3.410605131648481e-13L424.290212183436,14.099616858237823L212.435318275154,3.410605131648481e-13L0,0Z" class="layer"></path><text style="font-size: 11px; font-family: Arial,Helvetica;" y="475.4445554445554" x="636.1451060917179">activités</text><text style="font-size: 11px; font-family: Arial,Helvetica;" y="474.7892720306513" x="424.290212183436">administration</text><text style="font-size: 11px; font-family: Arial,Helvetica;" y="475.20871143375683" x="847.9999999999999">agence</text><text style="font-size: 11px; font-family: Arial,Helvetica;" y="468.011988011988" x="636.1451060917179">aide</text><text style="font-size: 11px; font-family: Arial,Helvetica;" y="437.90104947526237" x="212.435318275154">urbanisme</text><text style="font-size: 11px; font-family: Arial,Helvetica;" y="396.32367632367635" x="636.1451060917179">animation</text><text style="font-size: 11px; font-family: Arial,Helvetica;" y="405.03631961259083" x="0">assainissement</text><text style="font-size: 11px; font-family: Arial,Helvetica;" y="361.68582375478934" x="424.290212183436">association</text><text style="font-size: 11px; font-family: Arial,Helvetica;" y="301.8511796733213" x="847.9999999999999">budget</text><text style="font-size: 11px; font-family: Arial,Helvetica;" y="265.5690072639226" x="0">centre</text><text style="font-size: 11px; font-family: Arial,Helvetica;" y="263.97602397602407" x="636.1451060917179">communication</text><text style="font-size: 11px; font-family: Arial,Helvetica;" y="230.85299455535397" x="847.9999999999999">congrès</text><text style="font-size: 11px; font-family: Arial,Helvetica;" y="206.46098003629777" x="847.9999999999999">courrier</text><text style="font-size: 11px; font-family: Arial,Helvetica;" y="191.8081918081919" x="636.1451060917179">école</text><text style="font-size: 11px; font-family: Arial,Helvetica;" y="183.50824587706165" x="212.435318275154">entreprises</text><text style="font-size: 11px; font-family: Arial,Helvetica;" y="150.70780399274065" x="847.9999999999999">entretien</text><text style="font-size: 11px; font-family: Arial,Helvetica;" y="139.8185117967334" x="847.9999999999999">environnement</text><text style="font-size: 11px; font-family: Arial,Helvetica;" y="127.62250453720526" x="847.9999999999999">exploitation</text><text style="font-size: 11px; font-family: Arial,Helvetica;" y="114.11978221415626" x="847.9999999999999">formation</text><text style="font-size: 11px; font-family: Arial,Helvetica;" y="199.32203389830516" x="0">gestion</text><text style="font-size: 11px; font-family: Arial,Helvetica;" y="127.07292707292731" x="636.1451060917179">hébergement</text><text style="font-size: 11px; font-family: Arial,Helvetica;" y="178.98305084745778" x="0">intercommunalité</text><text style="font-size: 11px; font-family: Arial,Helvetica;" y="101.92377495462813" x="847.9999999999999">journée</text><text style="font-size: 11px; font-family: Arial,Helvetica;" y="164.45520581113811" x="0">loisirs</text><text style="font-size: 11px; font-family: Arial,Helvetica;" y="142.12893553223415" x="212.435318275154">marché</text><text style="font-size: 11px; font-family: Arial,Helvetica;" y="137.72397094431" x="0">plan</text><text style="font-size: 11px; font-family: Arial,Helvetica;" y="111.26436781609215" x="424.290212183436">risques</text><text style="font-size: 11px; font-family: Arial,Helvetica;" y="105.76271186440687" x="0">réseau</text><text style="font-size: 11px; font-family: Arial,Helvetica;" y="92.78721278721304" x="636.1451060917179">salle</text><text style="font-size: 11px; font-family: Arial,Helvetica;" y="57.495462794918524" x="847.9999999999999">SAUR</text><text style="font-size: 11px; font-family: Arial,Helvetica;" y="32.6678765880219" x="847.9999999999999">service</text><text style="font-size: 11px; font-family: Arial,Helvetica;" y="57.542457542457896" x="636.1451060917179">site</text><text style="font-size: 11px; font-family: Arial,Helvetica;" y="47.95204795204825" x="636.1451060917179">sociale</text><text style="font-size: 11px; font-family: Arial,Helvetica;" y="47.65133171912839" x="0">subvention</text><text style="font-size: 11px; font-family: Arial,Helvetica;" y="39.846743295019394" x="424.290212183436">syndicat</text><text style="font-size: 11px; font-family: Arial,Helvetica;" y="34.28571428571439" x="0">sécurité</text><text style="font-size: 11px; font-family: Arial,Helvetica;" y="30.92907092907126" x="636.1451060917179">territoire</text><text style="font-size: 11px; font-family: Arial,Helvetica;" y="50.37481259370344" x="212.435318275154">transfert</text><text style="font-size: 11px; font-family: Arial,Helvetica;" y="21.818181818182097" x="636.1451060917179">église</text><text style="font-size: 11px; font-family: Arial,Helvetica;" y="7.672327672327981" x="636.1451060917179">voie</text><text style="font-size: 11px; font-family: Arial,Helvetica;" y="7.554479418886217" x="0">voeux</text><text style="font-size: 11px; font-family: Arial,Helvetica;" y="5.39730134932563" x="212.435318275154">zone</text><text style="font-size: 11px; font-family: Arial,Helvetica;" y="7.049808429119025" x="424.290212183436">élection</text></g></svg>
