<svg xmlns="http://www.w3.org/2000/svg" height="500" width="848"><g><g transform="translate(0,480)" style="stroke-width: 1px; font-size: 10px; font-family: Arial,Helvetica;" class="x axis"><g transform="translate(13.697987969300975,0)" style="opacity: 1;" class="tick"><line style="shape-rendering: crispedges; fill: none; stroke: rgb(204, 204, 204);" x2="0" y2="-480"></line><text style="text-anchor: middle;" dy=".71em" x="0" y="3">2012</text></g><g transform="translate(61.69591371084838,0)" style="opacity: 1;" class="tick"><line style="shape-rendering: crispedges; fill: none; stroke: rgb(204, 204, 204);" x2="0" y2="-480"></line><text style="text-anchor: middle;" dy=".71em" x="0" y="3">April</text></g><g transform="translate(109.71582659199336,0)" style="opacity: 1;" class="tick"><line style="shape-rendering: crispedges; fill: none; stroke: rgb(204, 204, 204);" x2="0" y2="-480"></line><text style="text-anchor: middle;" dy=".71em" x="0" y="3">July</text></g><g transform="translate(158.2634308234806,0)" style="opacity: 1;" class="tick"><line style="shape-rendering: crispedges; fill: none; stroke: rgb(204, 204, 204);" x2="0" y2="-480"></line><text style="text-anchor: middle;" dy=".71em" x="0" y="3">October</text></g><g transform="translate(206.83302219456544,0)" style="opacity: 1;" class="tick"><line style="shape-rendering: crispedges; fill: none; stroke: rgb(204, 204, 204);" x2="0" y2="-480"></line><text style="text-anchor: middle;" dy=".71em" x="0" y="3">2013</text></g><g transform="translate(254.30325658577058,0)" style="opacity: 1;" class="tick"><line style="shape-rendering: crispedges; fill: none; stroke: rgb(204, 204, 204);" x2="0" y2="-480"></line><text style="text-anchor: middle;" dy=".71em" x="0" y="3">April</text></g><g transform="translate(302.3231694669156,0)" style="opacity: 1;" class="tick"><line style="shape-rendering: crispedges; fill: none; stroke: rgb(204, 204, 204);" x2="0" y2="-480"></line><text style="text-anchor: middle;" dy=".71em" x="0" y="3">July</text></g><g transform="translate(350.87077369840284,0)" style="opacity: 1;" class="tick"><line style="shape-rendering: crispedges; fill: none; stroke: rgb(204, 204, 204);" x2="0" y2="-480"></line><text style="text-anchor: middle;" dy=".71em" x="0" y="3">October</text></g><g transform="translate(399.44036506948765,0)" style="opacity: 1;" class="tick"><line style="shape-rendering: crispedges; fill: none; stroke: rgb(204, 204, 204);" x2="0" y2="-480"></line><text style="text-anchor: middle;" dy=".71em" x="0" y="3">2014</text></g><g transform="translate(446.9105994606928,0)" style="opacity: 1;" class="tick"><line style="shape-rendering: crispedges; fill: none; stroke: rgb(204, 204, 204);" x2="0" y2="-480"></line><text style="text-anchor: middle;" dy=".71em" x="0" y="3">April</text></g><g transform="translate(494.9305123418378,0)" style="opacity: 1;" class="tick"><line style="shape-rendering: crispedges; fill: none; stroke: rgb(204, 204, 204);" x2="0" y2="-480"></line><text style="text-anchor: middle;" dy=".71em" x="0" y="3">July</text></g><g transform="translate(543.4781165733251,0)" style="opacity: 1;" class="tick"><line style="shape-rendering: crispedges; fill: none; stroke: rgb(204, 204, 204);" x2="0" y2="-480"></line><text style="text-anchor: middle;" dy=".71em" x="0" y="3">October</text></g><g transform="translate(592.0477079444099,0)" style="opacity: 1;" class="tick"><line style="shape-rendering: crispedges; fill: none; stroke: rgb(204, 204, 204);" x2="0" y2="-480"></line><text style="text-anchor: middle;" dy=".71em" x="0" y="3">2015</text></g><g transform="translate(639.5179423356151,0)" style="opacity: 1;" class="tick"><line style="shape-rendering: crispedges; fill: none; stroke: rgb(204, 204, 204);" x2="0" y2="-480"></line><text style="text-anchor: middle;" dy=".71em" x="0" y="3">April</text></g><g transform="translate(687.53785521676,0)" style="opacity: 1;" class="tick"><line style="shape-rendering: crispedges; fill: none; stroke: rgb(204, 204, 204);" x2="0" y2="-480"></line><text style="text-anchor: middle;" dy=".71em" x="0" y="3">July</text></g><g transform="translate(736.0854594482473,0)" style="opacity: 1;" class="tick"><line style="shape-rendering: crispedges; fill: none; stroke: rgb(204, 204, 204);" x2="0" y2="-480"></line><text style="text-anchor: middle;" dy=".71em" x="0" y="3">October</text></g><g transform="translate(784.6550508193321,0)" style="opacity: 1;" class="tick"><line style="shape-rendering: crispedges; fill: none; stroke: rgb(204, 204, 204);" x2="0" y2="-480"></line><text style="text-anchor: middle;" dy=".71em" x="0" y="3">2016</text></g><g transform="translate(832.6529765608796,0)" style="opacity: 1;" class="tick"><line style="shape-rendering: crispedges; fill: none; stroke: rgb(204, 204, 204);" x2="0" y2="-480"></line><text style="text-anchor: middle;" dy=".71em" x="0" y="3">April</text></g><path style="shape-rendering: crispedges; fill: none; stroke: rgb(204, 204, 204);" d="M0,-480V0H848V-480" class="domain"></path></g><path style="fill: rgb(191, 105, 105);" title="Budget principal" d="M0,480L45.90914747977598,337.93566263510786L68.0721841941506,345.66666861522094L101.31673926571251,402.3450035791399L116.09209707529558,348.61096954569103L156.1966397013068,375.69432922879236L197.3565650280025,223.3163933110738L245.37647790914747,362.02714832093966L260.1518357187306,302.1232829029774L285.4810205351587,277.51952584234675L296.0348475420038,358.68555488891377L311.3378967019291,480L344.58245177349096,480L359.8855009334163,423.0913246643925L392.602364654636,480L436.92843808338523,367.59357976167763L462.2576228998134,480L489.1698817672682,480L503.9452395768513,331.67221561780417L540.883634100809,480L577.8220286247666,5.684341886080802e-14L606.3173615432484,204.67699790140705L644.3111387678905,385.47340037422873L675.4449284380834,480L699.7187305538271,480L725.5756067205974,480L773.5955196017425,480L814.2277535780959,376.868350890693L848,408.7850958980984L848,480L814.2277535780959,480L773.5955196017425,480L725.5756067205974,480L699.7187305538271,480L675.4449284380834,480L644.3111387678905,480L606.3173615432484,480L577.8220286247666,480L540.883634100809,480L503.9452395768513,480L489.1698817672682,480L462.2576228998134,480L436.92843808338523,480L392.602364654636,480L359.8855009334163,480L344.58245177349096,480L311.3378967019291,480L296.0348475420038,480L285.4810205351587,480L260.1518357187306,480L245.37647790914747,480L197.3565650280025,480L156.1966397013068,480L116.09209707529558,480L101.31673926571251,480L68.0721841941506,480L45.90914747977598,480L0,480Z" class="layer"></path><path style="fill: rgb(105, 191, 191);" title="Budget de l'eau et de l'assainissement" d="M0,480L45.90914747977598,337.93566263510786L68.0721841941506,345.66666861522094L101.31673926571251,397.67901678077226L116.09209707529558,344.01946712000665L156.1966397013068,372.2507024095291L197.3565650280025,223.3163933110738L245.37647790914747,362.02714832093966L260.1518357187306,290.00777473153795L285.4810205351587,277.51952584234675L296.0348475420038,358.68555488891377L311.3378967019291,480L344.58245177349096,480L359.8855009334163,416.9897281075942L392.602364654636,480L436.92843808338523,366.9162056121551L462.2576228998134,480L489.1698817672682,480L503.9452395768513,331.67221561780417L540.883634100809,480L577.8220286247666,5.684341886080802e-14L606.3173615432484,197.4657882584017L644.3111387678905,385.47340037422873L675.4449284380834,480L699.7187305538271,480L725.5756067205974,480L773.5955196017425,480L814.2277535780959,376.868350890693L848,408.7850958980984L848,408.7850958980984L814.2277535780959,376.868350890693L773.5955196017425,480L725.5756067205974,480L699.7187305538271,480L675.4449284380834,480L644.3111387678905,385.47340037422873L606.3173615432484,204.67699790140705L577.8220286247666,5.684341886080802e-14L540.883634100809,480L503.9452395768513,331.67221561780417L489.1698817672682,480L462.2576228998134,480L436.92843808338523,367.59357976167763L392.602364654636,480L359.8855009334163,423.0913246643925L344.58245177349096,480L311.3378967019291,480L296.0348475420038,358.68555488891377L285.4810205351587,277.51952584234675L260.1518357187306,302.1232829029774L245.37647790914747,362.02714832093966L197.3565650280025,223.3163933110738L156.1966397013068,375.69432922879236L116.09209707529558,348.61096954569103L101.31673926571251,402.3450035791399L68.0721841941506,345.66666861522094L45.90914747977598,337.93566263510786L0,480Z" class="layer"></path><text style="font-size: 11px; font-family: Arial,Helvetica;" y="240.00000000000003" x="577.8220286247666">Budget principal</text><text style="font-size: 11px; font-family: Arial,Helvetica;" y="296.0655288172577" x="260.1518357187306">Budget de l'eau et de l'assainissement</text></g></svg>
